<?xml version="1.0" encoding="UTF-8"?>
<svg xmlns="http://www.w3.org/2000/svg" xmlns:xlink="http://www.w3.org/1999/xlink" width="40px" height="47px" viewBox="0 0 40 46" version="1.1">
<g id="surface1">
<path style=" stroke:none;fill-rule:evenodd;fill:rgb(99.607843%,99.215686%,99.215686%);fill-opacity:1;" d="M 13.179688 39.207031 C 13.273438 39.140625 13.375 39.085938 13.480469 39.050781 C 13.582031 39.195312 13.648438 39.363281 13.652344 39.542969 C 13.433594 39.636719 13.144531 39.429688 13.179688 39.207031 "/>
<path style=" stroke:none;fill-rule:evenodd;fill:rgb(95.294118%,44.313726%,48.235294%);fill-opacity:1;" d="M 26.277344 36.667969 C 26.277344 36.667969 29.816406 37.0625 29.957031 36.492188 C 30.097656 35.925781 26.277344 35.761719 26.277344 35.761719 C 26.277344 35.761719 35.425781 33.183594 35.410156 32.839844 C 35.394531 32.496094 26.277344 34.960938 26.277344 34.960938 C 26.277344 34.960938 35.472656 28.527344 35.238281 28.148438 C 35.003906 27.765625 26.589844 31.105469 26.589844 31.105469 C 26.589844 31.105469 30.714844 28.445312 30.40625 28.21875 C 30.097656 27.996094 26.277344 30.242188 26.277344 30.242188 C 26.277344 30.242188 30.890625 20.414062 30.84375 20.3125 C 30.796875 20.214844 26.902344 26.308594 26.902344 26.308594 C 26.902344 26.308594 31.574219 13.40625 31.1875 12.996094 C 30.796875 12.585938 23.007812 25.878906 23.007812 25.878906 C 23.007812 25.878906 23.628906 20.335938 23.320312 20.3125 C 23.007812 20.289062 21.683594 25.878906 21.683594 25.878906 C 21.683594 25.878906 17.867188 4.355469 17.554688 4.351562 C 17.242188 4.347656 18.253906 13.667969 18.253906 13.667969 C 18.253906 13.667969 13.660156 0 13.347656 0.226562 C 13.035156 0.457031 15.140625 25.195312 15.140625 25.195312 C 15.140625 25.195312 13.597656 14.113281 13.316406 14.113281 C 13.035156 14.113281 14.359375 26.566406 14.359375 26.566406 C 14.359375 26.566406 9.609375 21.976562 9.296875 22.085938 C 8.984375 22.195312 14.046875 27.789062 14.046875 27.789062 C 14.046875 27.789062 3.21875 22.679688 2.832031 23.199219 C 2.441406 23.722656 13.347656 30.242188 13.347656 30.242188 C 13.347656 30.242188 4.621094 28.554688 4.3125 29.378906 C 4 30.207031 13.347656 33.773438 13.347656 33.773438 C 13.347656 33.773438 6.648438 34.402344 6.726562 34.859375 C 6.804688 35.316406 14.75 35.285156 14.75 35.285156 C 14.75 35.285156 9.839844 35.617188 9.917969 36.039062 C 9.996094 36.460938 15.0625 35.804688 15.0625 35.804688 C 15.0625 35.804688 8.128906 39.609375 8.363281 40.09375 C 8.59375 40.578125 15.683594 37.261719 15.683594 37.261719 C 15.683594 37.261719 12.722656 45.023438 13.113281 45.242188 C 13.503906 45.460938 17.789062 36.976562 17.789062 36.976562 C 17.789062 36.976562 16.695312 41.816406 17.007812 41.886719 C 17.320312 41.953125 18.644531 36.667969 18.644531 36.667969 C 18.644531 36.667969 20.28125 43.621094 21.058594 43.4375 C 21.839844 43.25 20.902344 36.667969 20.902344 36.667969 C 20.902344 36.667969 25.109375 41.96875 25.578125 41.886719 C 26.046875 41.800781 22.851562 36.492188 22.851562 36.492188 C 22.851562 36.492188 27.835938 40.390625 28.148438 39.835938 C 28.460938 39.285156 24.875 36.039062 24.875 36.039062 C 24.875 36.039062 28.355469 38.117188 28.5625 37.9375 C 28.773438 37.757812 25.421875 35.445312 25.421875 35.445312 "/>
<path style=" stroke:none;fill-rule:evenodd;fill:rgb(95.294118%,44.313726%,48.235294%);fill-opacity:1;" d="M 32.230469 27.324219 C 32.867188 26.652344 33.527344 26.011719 34.40625 25.679688 C 34.578125 25.617188 34.722656 25.835938 34.636719 25.976562 C 34.136719 26.804688 33.277344 27.257812 32.375 27.566406 C 32.230469 27.617188 32.136719 27.421875 32.230469 27.324219 "/>
<path style=" stroke:none;fill-rule:evenodd;fill:rgb(95.294118%,44.313726%,48.235294%);fill-opacity:1;" d="M 11.664062 20.054688 C 11.472656 19.160156 11.082031 18.277344 10.972656 17.371094 C 10.941406 17.105469 11.339844 17.039062 11.460938 17.242188 C 11.949219 18.042969 11.984375 19.109375 11.96875 20.015625 C 11.964844 20.179688 11.699219 20.226562 11.664062 20.054688 "/>
<path style=" stroke:none;fill-rule:evenodd;fill:rgb(95.294118%,44.313726%,48.235294%);fill-opacity:1;" d="M 5.484375 27.90625 C 4.957031 27.574219 4.386719 27.324219 3.820312 27.066406 C 3.617188 26.972656 3.761719 26.640625 3.972656 26.707031 C 4.589844 26.90625 5.136719 27.238281 5.648438 27.625 C 5.8125 27.746094 5.667969 28.023438 5.484375 27.90625 "/>
<path style=" stroke:none;fill-rule:evenodd;fill:rgb(95.294118%,44.313726%,48.235294%);fill-opacity:1;" d="M 12.304688 41.621094 C 11.820312 42.253906 11.492188 42.964844 11.046875 43.617188 C 10.867188 43.878906 10.503906 43.65625 10.632812 43.375 C 10.949219 42.652344 11.574219 41.980469 12.101562 41.414062 C 12.234375 41.273438 12.414062 41.476562 12.304688 41.621094 "/>
<path style=" stroke:none;fill-rule:evenodd;fill:rgb(95.294118%,44.313726%,48.235294%);fill-opacity:1;" d="M 36.148438 20.523438 C 36.300781 20.253906 36.46875 20.027344 36.660156 19.785156 C 36.75 19.667969 36.835938 19.554688 36.941406 19.453125 C 37.054688 19.351562 37.195312 19.285156 37.324219 19.207031 C 37.464844 19.125 37.640625 19.261719 37.597656 19.414062 C 37.554688 19.574219 37.515625 19.734375 37.421875 19.871094 C 37.328125 20.003906 37.214844 20.117188 37.09375 20.222656 C 36.84375 20.441406 36.613281 20.59375 36.304688 20.71875 C 36.1875 20.769531 36.097656 20.617188 36.148438 20.523438 "/>
<path style=" stroke:none;fill-rule:evenodd;fill:rgb(95.294118%,44.313726%,48.235294%);fill-opacity:1;" d="M 35.25 38.640625 C 35.652344 38.675781 36.101562 38.710938 36.460938 38.914062 C 36.660156 39.027344 36.511719 39.28125 36.316406 39.253906 C 35.941406 39.203125 35.578125 39.046875 35.203125 38.976562 C 35.015625 38.941406 35.058594 38.621094 35.25 38.640625 "/>
<path style=" stroke:none;fill-rule:evenodd;fill:rgb(95.294118%,44.313726%,48.235294%);fill-opacity:1;" d="M 6.742188 11.738281 C 6.667969 11.648438 6.621094 11.574219 6.585938 11.460938 C 6.554688 11.351562 6.507812 11.246094 6.507812 11.132812 C 6.507812 10.988281 6.691406 10.957031 6.769531 11.0625 C 6.828125 11.148438 6.855469 11.257812 6.886719 11.355469 C 6.925781 11.464844 6.933594 11.546875 6.925781 11.664062 C 6.921875 11.746094 6.804688 11.816406 6.742188 11.738281 "/>
<path style=" stroke:none;fill-rule:evenodd;fill:rgb(96.078432%,93.725491%,60.784316%);fill-opacity:1;" d="M 20.933594 34.71875 C 20.933594 34.71875 22.058594 36.617188 22.246094 36.429688 C 22.433594 36.246094 21.933594 34.71875 21.933594 34.71875 C 21.933594 34.71875 24.5625 35.324219 24.6875 35.078125 C 24.8125 34.832031 22.433594 33.789062 22.433594 33.789062 C 22.433594 33.789062 26.566406 32.746094 26.628906 32.683594 C 26.691406 32.621094 22.371094 32.546875 22.371094 32.546875 C 22.371094 32.546875 25.253906 26.558594 24.8125 26.394531 C 24.375 26.230469 20.558594 30.894531 20.558594 30.894531 C 20.558594 30.894531 18.175781 18.859375 17.988281 18.707031 C 17.800781 18.550781 17.988281 22.957031 17.988281 22.957031 L 15.984375 16.035156 L 17.675781 31.078125 C 17.675781 31.078125 12.980469 27.652344 12.792969 28.078125 C 12.605469 28.503906 17.425781 32.21875 17.425781 32.21875 C 17.425781 32.21875 12.050781 31.5 12.234375 31.816406 C 12.417969 32.128906 17.488281 33.238281 17.488281 33.238281 C 17.488281 33.238281 15.109375 35.941406 15.421875 36.0625 C 15.734375 36.1875 18.367188 33.789062 18.367188 33.789062 L 18.175781 36 L 19.117188 33.972656 L 19.929688 37.363281 L 20.242188 34.28125 L 20.996094 35.675781 L 20.933594 34.71875 "/>
<path style=" stroke:none;fill-rule:evenodd;fill:rgb(31.764707%,34.509805%,35.686275%);fill-opacity:1;" d="M 22.871094 13.910156 C 22.863281 13.769531 22.855469 13.632812 22.878906 13.492188 C 22.886719 13.433594 22.964844 13.164062 22.933594 13.121094 C 22.972656 13.148438 23.011719 13.179688 23.050781 13.210938 C 23.164062 13.105469 23.203125 13.101562 23.175781 13.199219 C 23.171875 13.242188 23.164062 13.285156 23.160156 13.328125 C 23.144531 13.421875 23.125 13.515625 23.105469 13.605469 C 23.078125 13.765625 23.082031 13.941406 22.925781 14.023438 C 22.875 14.050781 22.808594 14.042969 22.765625 14 C 22.671875 13.90625 22.683594 13.824219 22.695312 13.691406 C 22.710938 13.550781 22.726562 13.410156 22.746094 13.269531 C 22.773438 13.078125 22.824219 12.796875 23.074219 12.804688 C 23.59375 12.816406 23.140625 13.746094 23.03125 13.957031 C 22.988281 14.035156 22.875 13.996094 22.871094 13.910156 "/>
<path style=" stroke:none;fill-rule:evenodd;fill:rgb(31.764707%,34.509805%,35.686275%);fill-opacity:1;" d="M 23.890625 14.003906 C 23.875 14.074219 23.859375 14.144531 23.839844 14.214844 C 23.808594 14.355469 23.527344 14.292969 23.585938 14.15625 C 23.613281 14.085938 23.640625 14.019531 23.667969 13.949219 C 23.714844 13.832031 23.917969 13.878906 23.890625 14.003906 "/>
<path style=" stroke:none;fill-rule:evenodd;fill:rgb(31.764707%,34.509805%,35.686275%);fill-opacity:1;" d="M 23.292969 14.457031 C 23.3125 14.5 23.316406 14.542969 23.316406 14.589844 C 23.320312 14.699219 23.242188 14.796875 23.136719 14.839844 C 23.019531 14.886719 22.914062 14.855469 22.816406 14.78125 C 22.78125 14.753906 22.753906 14.71875 22.726562 14.679688 C 22.632812 14.53125 22.710938 14.332031 22.875 14.269531 C 23.058594 14.195312 23.226562 14.292969 23.292969 14.457031 "/>
<path style=" stroke:none;fill-rule:evenodd;fill:rgb(31.764707%,34.509805%,35.686275%);fill-opacity:1;" d="M 38.640625 24.183594 C 38.894531 24.273438 39.011719 24.542969 38.828125 24.761719 C 38.667969 24.957031 38.324219 24.964844 38.15625 24.769531 C 38.328125 24.675781 38.5 24.582031 38.671875 24.484375 C 38.742188 24.691406 38.675781 24.898438 38.542969 25.066406 C 38.414062 25.238281 38.183594 25.410156 37.949219 25.347656 C 37.652344 25.269531 37.636719 24.917969 37.871094 24.761719 C 38.003906 24.671875 38.027344 24.644531 38.078125 24.484375 C 38.183594 24.15625 38.652344 24.238281 38.679688 24.5625 L 38.683594 24.539062 C 38.65625 24.5 38.632812 24.457031 38.609375 24.417969 C 38.578125 24.386719 38.503906 24.425781 38.492188 24.417969 C 38.464844 24.433594 38.464844 24.417969 38.5 24.371094 L 38.496094 24.320312 C 38.480469 24.242188 38.550781 24.152344 38.640625 24.183594 "/>
<path style=" stroke:none;fill-rule:evenodd;fill:rgb(31.764707%,34.509805%,35.686275%);fill-opacity:1;" d="M 37.070312 25.066406 L 37.058594 25.121094 C 37.023438 25.238281 36.871094 25.238281 36.839844 25.121094 L 36.824219 25.066406 C 36.761719 24.84375 37.136719 24.84375 37.070312 25.066406 "/>
<path style=" stroke:none;fill-rule:evenodd;fill:rgb(31.764707%,34.509805%,35.686275%);fill-opacity:1;" d="M 37.476562 26.53125 C 37.453125 26.535156 37.433594 26.539062 37.414062 26.542969 C 37.300781 26.558594 37.226562 26.476562 37.242188 26.351562 C 37.246094 26.328125 37.246094 26.304688 37.25 26.28125 C 37.269531 26.121094 37.46875 26.089844 37.558594 26.1875 C 37.644531 26.289062 37.617188 26.511719 37.476562 26.53125 "/>
<path style=" stroke:none;fill-rule:evenodd;fill:rgb(31.764707%,34.509805%,35.686275%);fill-opacity:1;" d="M 2.632812 21.207031 C 2.769531 21.160156 2.859375 21.234375 2.964844 21.3125 C 3.066406 21.394531 3.171875 21.472656 3.261719 21.566406 C 3.382812 21.6875 3.394531 21.902344 3.261719 22.023438 C 3.277344 21.992188 3.285156 21.957031 3.289062 21.921875 C 3.265625 22.082031 3.191406 22.207031 3.027344 22.257812 C 2.9375 22.289062 2.839844 22.269531 2.757812 22.222656 C 2.578125 22.128906 2.550781 21.914062 2.628906 21.746094 C 2.675781 21.648438 2.765625 21.5625 2.863281 21.515625 C 2.824219 21.660156 2.785156 21.808594 2.746094 21.957031 C 2.679688 21.824219 2.621094 21.6875 2.558594 21.550781 C 2.503906 21.441406 2.476562 21.253906 2.632812 21.207031 "/>
<path style=" stroke:none;fill-rule:evenodd;fill:rgb(31.764707%,34.509805%,35.686275%);fill-opacity:1;" d="M 4.117188 22.84375 C 4.183594 22.867188 4.253906 22.886719 4.304688 22.929688 C 4.355469 22.976562 4.375 23.035156 4.398438 23.09375 C 4.433594 23.175781 4.324219 23.277344 4.222656 23.242188 C 4.15625 23.21875 4.085938 23.203125 4.035156 23.15625 C 3.984375 23.113281 3.964844 23.054688 3.941406 22.996094 C 3.90625 22.914062 4.015625 22.808594 4.117188 22.84375 "/>
<path style=" stroke:none;fill-rule:evenodd;fill:rgb(31.764707%,34.509805%,35.686275%);fill-opacity:1;" d="M 37.09375 37.027344 C 36.929688 36.988281 36.769531 36.9375 36.609375 36.886719 C 36.671875 36.871094 36.734375 36.855469 36.796875 36.839844 C 36.691406 36.949219 36.613281 37.039062 36.457031 37.074219 C 36.328125 37.101562 36.191406 37.101562 36.066406 37.078125 C 35.835938 37.035156 35.535156 36.792969 35.714844 36.542969 C 35.875 36.324219 36.199219 36.476562 36.410156 36.484375 C 36.726562 36.5 36.929688 36.644531 37.183594 36.820312 C 37.285156 36.894531 37.230469 37.0625 37.09375 37.027344 "/>
<path style=" stroke:none;fill-rule:evenodd;fill:rgb(31.764707%,34.509805%,35.686275%);fill-opacity:1;" d="M 34.214844 36.890625 C 34.136719 36.804688 34.058594 36.722656 33.980469 36.636719 C 33.90625 36.554688 33.90625 36.429688 34 36.359375 C 34.097656 36.292969 34.21875 36.320312 34.285156 36.414062 C 34.347656 36.507812 34.414062 36.601562 34.480469 36.695312 C 34.585938 36.847656 34.34375 37.03125 34.214844 36.890625 "/>
<path style=" stroke:none;fill-rule:evenodd;fill:rgb(31.764707%,34.509805%,35.686275%);fill-opacity:1;" d="M 5.515625 39.941406 C 5.546875 39.832031 5.585938 39.730469 5.632812 39.628906 C 5.625 39.707031 5.613281 39.78125 5.605469 39.859375 C 5.589844 39.816406 5.574219 39.777344 5.5625 39.734375 C 5.484375 39.460938 5.609375 39.085938 5.882812 38.957031 C 6.019531 38.890625 6.148438 38.832031 6.304688 38.847656 C 6.546875 38.867188 6.757812 38.960938 6.886719 39.179688 C 7 39.367188 7.027344 39.671875 6.886719 39.855469 C 6.796875 39.976562 6.722656 40.082031 6.582031 40.148438 C 6.324219 40.269531 5.945312 40.285156 5.742188 40.039062 L 5.742188 40.035156 C 5.816406 40.046875 5.894531 40.054688 5.972656 40.066406 C 5.90625 40.089844 5.847656 40.117188 5.789062 40.148438 C 5.648438 40.226562 5.472656 40.097656 5.515625 39.941406 "/>
<path style=" stroke:none;fill-rule:evenodd;fill:rgb(31.764707%,34.509805%,35.686275%);fill-opacity:1;" d="M 7.363281 38.441406 L 7.417969 38.453125 C 7.535156 38.484375 7.535156 38.636719 7.417969 38.667969 L 7.363281 38.683594 C 7.132812 38.746094 7.132812 38.378906 7.363281 38.441406 "/>
<path style=" stroke:none;fill-rule:evenodd;fill:rgb(31.764707%,34.509805%,35.686275%);fill-opacity:1;" d="M 9.632812 37.25 C 9.878906 37.25 9.878906 36.886719 9.632812 36.886719 C 9.390625 36.886719 9.386719 37.25 9.632812 37.25 "/>
<path style=" stroke:none;fill-rule:evenodd;fill:rgb(31.764707%,34.509805%,35.686275%);fill-opacity:1;" d="M 0.398438 34.910156 C 0.570312 34.863281 0.699219 34.871094 0.863281 34.945312 C 1.007812 35.011719 1.097656 35.121094 1.140625 35.269531 C 1.179688 35.40625 1.113281 35.558594 0.984375 35.632812 C 0.84375 35.710938 0.699219 35.726562 0.542969 35.675781 C 0.378906 35.617188 0.28125 35.535156 0.195312 35.390625 C 0.0859375 35.207031 0.1875 34.972656 0.398438 34.910156 "/>
<path style=" stroke:none;fill-rule:evenodd;fill:rgb(31.764707%,34.509805%,35.686275%);fill-opacity:1;" d="M 2.542969 36.324219 C 2.296875 36.324219 2.296875 35.910156 2.542969 35.910156 C 2.789062 35.910156 2.789062 36.324219 2.542969 36.324219 "/>
<path style=" stroke:none;fill-rule:evenodd;fill:rgb(99.607843%,99.215686%,99.215686%);fill-opacity:1;" d="M 29.9375 25.789062 C 30.359375 25.21875 30.769531 24.582031 31.304688 24.101562 C 31.566406 23.867188 31.84375 23.722656 32.136719 23.53125 C 32.460938 23.3125 32.597656 22.964844 32.898438 22.746094 C 33.363281 22.410156 34.175781 22.472656 34.71875 22.410156 C 35.085938 22.371094 35.480469 22.28125 35.851562 22.34375 C 36.171875 22.398438 36.457031 22.574219 36.769531 22.660156 C 36.945312 22.707031 36.984375 22.953125 36.820312 23.042969 C 36.367188 23.285156 36.066406 23 35.582031 22.960938 C 34.910156 22.902344 33.617188 23.058594 33.101562 23.460938 C 32.679688 23.789062 32.289062 24.019531 31.804688 24.277344 C 31.070312 24.671875 30.515625 25.203125 29.976562 25.816406 C 29.957031 25.839844 29.921875 25.8125 29.9375 25.789062 "/>
<path style=" stroke:none;fill-rule:evenodd;fill:rgb(99.607843%,99.215686%,99.215686%);fill-opacity:1;" d="M 38.492188 36.179688 C 38.933594 36.472656 39.414062 36.734375 39.839844 37.050781 C 40.023438 37.191406 39.84375 37.511719 39.660156 37.371094 C 39.226562 37.039062 38.828125 36.640625 38.414062 36.285156 C 38.355469 36.234375 38.429688 36.136719 38.492188 36.179688 "/>
<path style=" stroke:none;fill-rule:evenodd;fill:rgb(99.607843%,99.215686%,99.215686%);fill-opacity:1;" d="M 4.390625 29.058594 C 3.074219 28.527344 1.746094 28.292969 0.359375 28.003906 C 0.199219 27.972656 0.234375 27.71875 0.402344 27.726562 C 1.816406 27.785156 3.207031 28.292969 4.464844 28.886719 C 4.566406 28.933594 4.496094 29.101562 4.390625 29.058594 "/>
<path style=" stroke:none;fill-rule:evenodd;fill:rgb(99.607843%,99.215686%,99.215686%);fill-opacity:1;" d="M 6.632812 42.796875 C 5.925781 43.058594 5.359375 43.535156 4.996094 44.183594 C 4.839844 44.46875 4.40625 44.179688 4.625 43.902344 C 5.121094 43.285156 5.820312 42.863281 6.605469 42.707031 C 6.667969 42.691406 6.691406 42.777344 6.632812 42.796875 "/>
<path style=" stroke:none;fill-rule:evenodd;fill:rgb(99.607843%,99.215686%,99.215686%);fill-opacity:1;" d="M 4.46875 42.777344 C 4.175781 42.886719 3.882812 43 3.589844 43.109375 C 3.46875 43.15625 3.402344 42.953125 3.535156 42.914062 C 3.835938 42.828125 4.132812 42.742188 4.433594 42.65625 C 4.515625 42.632812 4.542969 42.746094 4.46875 42.777344 "/>
<path style=" stroke:none;fill-rule:evenodd;fill:rgb(99.607843%,99.215686%,99.215686%);fill-opacity:1;" d="M 1.082031 29.070312 C 1.171875 29.070312 1.261719 29.070312 1.351562 29.070312 C 1.441406 29.070312 1.53125 29.058594 1.613281 29.105469 C 1.695312 29.15625 1.695312 29.289062 1.613281 29.339844 C 1.53125 29.386719 1.441406 29.375 1.351562 29.375 C 1.261719 29.375 1.171875 29.375 1.082031 29.375 C 0.890625 29.375 0.890625 29.070312 1.082031 29.070312 "/>
<path style=" stroke:none;fill-rule:evenodd;fill:rgb(81.960785%,67.450982%,70.19608%);fill-opacity:1;" d="M 33.191406 41.6875 C 33.105469 41.75 33.054688 41.8125 32.949219 41.828125 C 32.925781 41.832031 32.921875 41.796875 32.945312 41.792969 C 33.023438 41.792969 33.140625 41.761719 33.179688 41.675781 L 33.191406 41.6875 "/>
<path style=" stroke:none;fill-rule:evenodd;fill:rgb(81.960785%,67.450982%,70.19608%);fill-opacity:1;" d="M 33.078125 42.019531 C 33.015625 42.070312 32.9375 42.09375 32.847656 42.085938 C 32.816406 42.082031 32.816406 42.039062 32.847656 42.042969 C 32.921875 42.050781 32.988281 42.035156 33.042969 41.988281 C 33.066406 41.972656 33.101562 42 33.078125 42.019531 "/>
<path style=" stroke:none;fill-rule:evenodd;fill:rgb(81.960785%,67.450982%,70.19608%);fill-opacity:1;" d="M 32.578125 42.027344 C 32.507812 42.050781 32.433594 42.089844 32.347656 42.085938 C 32.300781 42.085938 32.277344 42.042969 32.3125 42.015625 C 32.367188 41.96875 32.453125 41.953125 32.53125 41.933594 C 32.597656 41.917969 32.644531 42 32.578125 42.027344 "/>
<path style=" stroke:none;fill-rule:evenodd;fill:rgb(81.960785%,67.450982%,70.19608%);fill-opacity:1;" d="M 32.75 42.480469 C 32.660156 42.5625 32.546875 42.574219 32.445312 42.507812 C 32.34375 42.445312 32.449219 42.285156 32.546875 42.367188 C 32.585938 42.402344 32.632812 42.390625 32.667969 42.367188 C 32.730469 42.324219 32.808594 42.425781 32.75 42.480469 "/>
<path style=" stroke:none;fill-rule:evenodd;fill:rgb(81.960785%,67.450982%,70.19608%);fill-opacity:1;" d="M 21.726562 45.8125 C 21.667969 45.902344 21.582031 45.945312 21.484375 45.945312 C 21.40625 45.949219 21.40625 45.808594 21.484375 45.808594 C 21.554688 45.804688 21.601562 45.773438 21.640625 45.714844 C 21.691406 45.644531 21.777344 45.742188 21.726562 45.8125 "/>
<path style=" stroke:none;fill-rule:evenodd;fill:rgb(81.960785%,67.450982%,70.19608%);fill-opacity:1;" d="M 21.421875 45.421875 C 21.40625 45.441406 21.386719 45.460938 21.367188 45.476562 C 21.34375 45.5 21.308594 45.464844 21.332031 45.441406 C 21.351562 45.425781 21.367188 45.40625 21.386719 45.386719 C 21.410156 45.367188 21.445312 45.402344 21.421875 45.421875 "/>
<path style=" stroke:none;fill-rule:evenodd;fill:rgb(81.960785%,67.450982%,70.19608%);fill-opacity:1;" d="M 18.800781 43.011719 C 18.703125 42.984375 18.605469 42.953125 18.507812 42.925781 C 18.363281 42.882812 18.445312 42.648438 18.589844 42.71875 C 18.679688 42.761719 18.773438 42.804688 18.863281 42.851562 C 18.949219 42.890625 18.886719 43.035156 18.800781 43.011719 "/>
<path style=" stroke:none;fill-rule:evenodd;fill:rgb(81.960785%,67.450982%,70.19608%);fill-opacity:1;" d="M 18.480469 43.21875 C 18.351562 43.207031 18.242188 43.136719 18.175781 43.011719 C 18.136719 42.9375 18.253906 42.867188 18.289062 42.945312 C 18.332031 43.035156 18.402344 43.089844 18.496094 43.101562 C 18.558594 43.113281 18.546875 43.226562 18.480469 43.21875 "/>
<path style=" stroke:none;fill-rule:evenodd;fill:rgb(81.960785%,67.450982%,70.19608%);fill-opacity:1;" d="M 31.722656 35.128906 C 31.714844 35.226562 31.683594 35.316406 31.617188 35.394531 C 31.558594 35.460938 31.476562 35.527344 31.386719 35.488281 C 31.359375 35.476562 31.347656 35.441406 31.355469 35.417969 C 31.371094 35.355469 31.425781 35.339844 31.464844 35.292969 C 31.507812 35.246094 31.527344 35.191406 31.53125 35.128906 C 31.53125 35.003906 31.730469 35.007812 31.722656 35.128906 "/>
<path style=" stroke:none;fill-rule:evenodd;fill:rgb(81.960785%,67.450982%,70.19608%);fill-opacity:1;" d="M 34.890625 30.257812 C 34.898438 30.3125 34.933594 30.347656 34.925781 30.410156 C 34.917969 30.460938 34.886719 30.507812 34.859375 30.542969 C 34.835938 30.574219 34.785156 30.5625 34.777344 30.519531 C 34.769531 30.472656 34.761719 30.410156 34.777344 30.363281 C 34.796875 30.308594 34.84375 30.296875 34.875 30.25 L 34.890625 30.257812 "/>
<path style=" stroke:none;fill-rule:evenodd;fill:rgb(81.960785%,67.450982%,70.19608%);fill-opacity:1;" d="M 34.710938 30.40625 C 34.683594 30.496094 34.675781 30.621094 34.585938 30.660156 C 34.5625 30.667969 34.535156 30.652344 34.523438 30.632812 C 34.476562 30.550781 34.539062 30.441406 34.5625 30.359375 C 34.59375 30.257812 34.746094 30.300781 34.710938 30.40625 "/>
<path style=" stroke:none;fill-rule:evenodd;fill:rgb(81.960785%,67.450982%,70.19608%);fill-opacity:1;" d="M 34.296875 38.332031 C 34.289062 38.425781 34.199219 38.515625 34.09375 38.472656 C 34.003906 38.4375 34.011719 38.3125 34.117188 38.308594 L 34.074219 38.359375 C 34.011719 38.21875 34.304688 38.164062 34.296875 38.332031 "/>
<path style=" stroke:none;fill-rule:evenodd;fill:rgb(81.960785%,67.450982%,70.19608%);fill-opacity:1;" d="M 33.914062 38.296875 C 33.871094 38.320312 33.832031 38.34375 33.792969 38.367188 C 33.679688 38.433594 33.539062 38.269531 33.648438 38.1875 C 33.683594 38.160156 33.722656 38.132812 33.757812 38.105469 C 33.90625 37.992188 34.070312 38.207031 33.914062 38.296875 "/>
<path style=" stroke:none;fill-rule:evenodd;fill:rgb(81.960785%,67.450982%,70.19608%);fill-opacity:1;" d="M 6.382812 33.613281 C 6.386719 33.667969 6.394531 33.722656 6.402344 33.777344 C 6.410156 33.839844 6.398438 33.871094 6.359375 33.921875 C 6.300781 34 6.203125 33.929688 6.195312 33.851562 C 6.183594 33.746094 6.28125 33.667969 6.34375 33.59375 L 6.382812 33.613281 "/>
<path style=" stroke:none;fill-rule:evenodd;fill:rgb(81.960785%,67.450982%,70.19608%);fill-opacity:1;" d="M 6.023438 33.457031 C 6.03125 33.5 6.039062 33.539062 6.035156 33.582031 C 6.027344 33.691406 5.832031 33.648438 5.890625 33.546875 C 5.910156 33.511719 5.9375 33.484375 5.964844 33.453125 C 5.980469 33.4375 6.019531 33.433594 6.023438 33.457031 "/>
<path style=" stroke:none;fill-rule:evenodd;fill:rgb(81.960785%,67.450982%,70.19608%);fill-opacity:1;" d="M 5.765625 33.183594 C 5.757812 33.207031 5.746094 33.230469 5.734375 33.25 C 5.699219 33.332031 5.585938 33.261719 5.625 33.179688 C 5.632812 33.160156 5.644531 33.136719 5.65625 33.113281 C 5.691406 33.035156 5.804688 33.105469 5.765625 33.183594 "/>
<path style=" stroke:none;fill-rule:evenodd;fill:rgb(81.960785%,67.450982%,70.19608%);fill-opacity:1;" d="M 8.183594 40.699219 C 8.175781 40.765625 8.191406 40.824219 8.234375 40.886719 L 8.195312 40.902344 C 8.144531 40.835938 8.125 40.769531 8.132812 40.699219 L 8.183594 40.699219 "/>
<path style=" stroke:none;fill-rule:evenodd;fill:rgb(81.960785%,67.450982%,70.19608%);fill-opacity:1;" d="M 7.855469 40.726562 C 7.878906 40.839844 7.902344 40.957031 7.925781 41.070312 C 7.945312 41.175781 7.769531 41.195312 7.769531 41.089844 C 7.769531 40.972656 7.769531 40.855469 7.769531 40.738281 C 7.769531 40.691406 7.84375 40.679688 7.855469 40.726562 "/>
<path style=" stroke:none;fill-rule:evenodd;fill:rgb(81.960785%,67.450982%,70.19608%);fill-opacity:1;" d="M 7.527344 40.773438 C 7.539062 40.835938 7.546875 40.898438 7.558594 40.960938 C 7.574219 41.089844 7.277344 41.089844 7.296875 40.960938 C 7.304688 40.898438 7.3125 40.835938 7.324219 40.773438 C 7.339844 40.671875 7.511719 40.671875 7.527344 40.773438 "/>
<path style=" stroke:none;fill-rule:evenodd;fill:rgb(81.960785%,67.450982%,70.19608%);fill-opacity:1;" d="M 18.710938 45.269531 C 18.554688 45.296875 18.355469 45.261719 18.285156 45.089844 C 18.242188 44.980469 18.332031 44.882812 18.433594 44.929688 C 18.519531 44.96875 18.582031 45.019531 18.679688 45.007812 C 18.816406 44.996094 18.851562 45.25 18.710938 45.269531 "/>
<path style=" stroke:none;fill-rule:evenodd;fill:rgb(81.960785%,67.450982%,70.19608%);fill-opacity:1;" d="M 11.492188 37.058594 C 11.542969 37.191406 11.597656 37.324219 11.648438 37.457031 C 11.707031 37.605469 11.445312 37.679688 11.402344 37.523438 C 11.367188 37.386719 11.328125 37.25 11.292969 37.113281 C 11.257812 36.984375 11.445312 36.941406 11.492188 37.058594 "/>
<path style=" stroke:none;fill-rule:evenodd;fill:rgb(81.960785%,67.450982%,70.19608%);fill-opacity:1;" d="M 11.183594 37.023438 C 11.21875 37.09375 11.25 37.148438 11.230469 37.226562 C 11.199219 37.324219 11.0625 37.324219 11.035156 37.226562 C 11.011719 37.148438 11.046875 37.09375 11.078125 37.023438 C 11.097656 36.980469 11.164062 36.980469 11.183594 37.023438 "/>
<path style=" stroke:none;fill-rule:evenodd;fill:rgb(81.960785%,67.450982%,70.19608%);fill-opacity:1;" d="M 10.8125 37 C 10.808594 37.03125 10.800781 37.0625 10.796875 37.09375 C 10.78125 37.164062 10.636719 37.164062 10.625 37.09375 C 10.617188 37.0625 10.613281 37.03125 10.605469 37 C 10.578125 36.851562 10.839844 36.851562 10.8125 37 "/>
<path style=" stroke:none;fill-rule:evenodd;fill:rgb(81.960785%,67.450982%,70.19608%);fill-opacity:1;" d="M 4.460938 37.390625 C 4.453125 37.480469 4.445312 37.570312 4.4375 37.660156 C 4.425781 37.816406 4.167969 37.789062 4.199219 37.632812 C 4.21875 37.542969 4.234375 37.453125 4.253906 37.367188 C 4.273438 37.265625 4.46875 37.285156 4.460938 37.390625 "/>
<path style=" stroke:none;fill-rule:evenodd;fill:rgb(81.960785%,67.450982%,70.19608%);fill-opacity:1;" d="M 4 37.214844 C 4.015625 37.328125 4.054688 37.457031 4.03125 37.570312 C 4.007812 37.691406 3.808594 37.691406 3.78125 37.570312 C 3.761719 37.457031 3.796875 37.328125 3.816406 37.214844 C 3.832031 37.125 3.984375 37.125 4 37.214844 "/>
<path style=" stroke:none;fill-rule:evenodd;fill:rgb(81.960785%,67.450982%,70.19608%);fill-opacity:1;" d="M 3.488281 37.25 C 3.523438 37.25 3.523438 37.199219 3.488281 37.199219 C 3.453125 37.199219 3.453125 37.25 3.488281 37.25 "/>
</g>
</svg>
